<?xml version="1.0" encoding="utf-8" standalone="no"?>
<!DOCTYPE svg PUBLIC "-//W3C//DTD SVG 1.1//EN"
  "http://www.w3.org/Graphics/SVG/1.1/DTD/svg11.dtd">
<svg xmlns:xlink="http://www.w3.org/1999/xlink" width="479.52095pt" height="381.144pt" viewBox="0 0 479.52095 381.144" xmlns="http://www.w3.org/2000/svg" version="1.1">
 <metadata>
  <rdf:RDF xmlns:dc="http://purl.org/dc/elements/1.1/" xmlns:cc="http://creativecommons.org/ns#" xmlns:rdf="http://www.w3.org/1999/02/22-rdf-syntax-ns#">
   <cc:Work>
    <dc:type rdf:resource="http://purl.org/dc/dcmitype/StillImage"/>
    <dc:date>2026-09-04T00:44:45.991112</dc:date>
    <dc:format>image/svg+xml</dc:format>
    <dc:creator>
     <cc:Agent>
      <dc:title>Matplotlib v3.11.1, https://matplotlib.org/</dc:title>
     </cc:Agent>
    </dc:creator>
   </cc:Work>
  </rdf:RDF>
 </metadata>
 <defs>
  <style type="text/css">*{stroke-linejoin: round; stroke-linecap: butt}</style>
 </defs>
 <g id="figure_1">
  <g id="patch_1">
   <path d="M 0 381.144 
L 479.52095 381.144 
L 479.52095 0 
L 0 0 
z
" style="fill: #ffffff"/>
  </g>
  <g id="axes_1">
   <g id="patch_2">
    <path d="M 144.89375 306.552 
L 459.36095 306.552 
L 459.36095 34.392 
L 144.89375 34.392 
z
" style="fill: #ffffff"/>
   </g>
   <g id="line2d_1">
    <path d="M 218.025657 306.552 
L 218.025657 34.392 
" clip-path="url(#p48449364b5)" style="fill: none; stroke-dasharray: 3.7,1.6; stroke-dashoffset: 0; stroke: #1d1d1f"/>
   </g>
   <g id="matplotlib.axis_1">
    <g id="xtick_1">
     <g id="line2d_2">
      <defs>
       <path id="m3ca53926d7" d="M 0 0 
L 0 3.5 
" style="stroke: #1d1d1f; stroke-width: 0.8"/>
      </defs>
      <g>
       <use xlink:href="#m3ca53926d7" x="181.459703" y="306.552" style="fill: #1d1d1f; stroke: #1d1d1f; stroke-width: 0.8"/>
      </g>
     </g>
     <g id="text_1">
      <text style="font-size: 8px; font-family: 'TeX Gyre Heros', 'DejaVu Sans', sans-serif; text-anchor: middle; fill: #1d1d1f" x="181.459703" y="319.824" transform="rotate(-0 181.459703 319.824)">0.4</text>
     </g>
    </g>
    <g id="xtick_2">
     <g id="line2d_3">
      <g>
       <use xlink:href="#m3ca53926d7" x="218.025657" y="306.552" style="fill: #1d1d1f; stroke: #1d1d1f; stroke-width: 0.8"/>
      </g>
     </g>
     <g id="text_2">
      <text style="font-size: 8px; font-family: 'TeX Gyre Heros', 'DejaVu Sans', sans-serif; text-anchor: middle; fill: #1d1d1f" x="218.025657" y="319.824" transform="rotate(-0 218.025657 319.824)">0.5</text>
     </g>
    </g>
    <g id="xtick_3">
     <g id="line2d_4">
      <g>
       <use xlink:href="#m3ca53926d7" x="254.59161" y="306.552" style="fill: #1d1d1f; stroke: #1d1d1f; stroke-width: 0.8"/>
      </g>
     </g>
     <g id="text_3">
      <text style="font-size: 8px; font-family: 'TeX Gyre Heros', 'DejaVu Sans', sans-serif; text-anchor: middle; fill: #1d1d1f" x="254.59161" y="319.824" transform="rotate(-0 254.59161 319.824)">0.6</text>
     </g>
    </g>
    <g id="xtick_4">
     <g id="line2d_5">
      <g>
       <use xlink:href="#m3ca53926d7" x="291.157564" y="306.552" style="fill: #1d1d1f; stroke: #1d1d1f; stroke-width: 0.8"/>
      </g>
     </g>
     <g id="text_4">
      <text style="font-size: 8px; font-family: 'TeX Gyre Heros', 'DejaVu Sans', sans-serif; text-anchor: middle; fill: #1d1d1f" x="291.157564" y="319.824" transform="rotate(-0 291.157564 319.824)">0.7</text>
     </g>
    </g>
    <g id="xtick_5">
     <g id="line2d_6">
      <g>
       <use xlink:href="#m3ca53926d7" x="327.723517" y="306.552" style="fill: #1d1d1f; stroke: #1d1d1f; stroke-width: 0.8"/>
      </g>
     </g>
     <g id="text_5">
      <text style="font-size: 8px; font-family: 'TeX Gyre Heros', 'DejaVu Sans', sans-serif; text-anchor: middle; fill: #1d1d1f" x="327.723517" y="319.824" transform="rotate(-0 327.723517 319.824)">0.8</text>
     </g>
    </g>
    <g id="text_6">
     <text style="font-size: 9px; font-family: 'TeX Gyre Heros', 'DejaVu Sans', sans-serif; text-anchor: middle; fill: #1d1d1f" x="302.12735" y="332.608" transform="rotate(-0 302.12735 332.608)">Balanced accuracy</text>
    </g>
   </g>
   <g id="matplotlib.axis_2">
    <g id="ytick_1">
     <g id="line2d_7"/>
     <g id="text_7">
      <text style="font-size: 8px; font-family: 'TeX Gyre Heros', 'DejaVu Sans', sans-serif; text-anchor: end; fill: #1d1d1f" x="137.89375" y="131.693063" transform="rotate(-0 137.89375 131.693063)">3.0 s / 16 frames  (5.3 frames/s)</text>
     </g>
    </g>
    <g id="ytick_2">
     <g id="line2d_8"/>
     <g id="text_8">
      <text style="font-size: 8px; font-family: 'TeX Gyre Heros', 'DejaVu Sans', sans-serif; text-anchor: end; fill: #1d1d1f" x="137.89375" y="246.528506" transform="rotate(-0 137.89375 246.528506)">1.5 s / 16 frames  (10.7 frames/s)</text>
     </g>
    </g>
   </g>
   <g id="line2d_9">
    <path d="M 201.860302 128.557063 
L 278.031096 128.557063 
" clip-path="url(#p48449364b5)" style="fill: none; stroke: #2f6b45; stroke-width: 1.8"/>
   </g>
   <g id="line2d_10">
    <path d="M 204.709584 243.392506 
L 261.521839 243.392506 
" clip-path="url(#p48449364b5)" style="fill: none; stroke: #c46a2d; stroke-width: 1.8"/>
   </g>
   <g id="patch_3">
    <path d="M 144.89375 306.552 
L 459.36095 306.552 
" style="fill: none; stroke: #b0b0b4; stroke-width: 0.8; stroke-linejoin: miter; stroke-linecap: square"/>
   </g>
   <g id="text_9">
    <text style="font-size: 9px; font-family: 'TeX Gyre Heros', 'DejaVu Sans', sans-serif; text-anchor: middle; fill: #5c5c63" x="218.025657" y="43.931544" transform="rotate(-0 218.025657 43.931544)">chance  0.500</text>
   </g>
   <g id="line2d_11">
    <defs>
     <path id="mb00df6bc94" d="M 0 3.5 
C 0.928211 3.5 1.81853 3.131218 2.474874 2.474874 
C 3.131218 1.81853 3.5 0.928211 3.5 0 
C 3.5 -0.928211 3.131218 -1.81853 2.474874 -2.474874 
C 1.81853 -3.131218 0.928211 -3.5 0 -3.5 
C -0.928211 -3.5 -1.81853 -3.131218 -2.474874 -2.474874 
C -3.131218 -1.81853 -3.5 -0.928211 -3.5 0 
C -3.5 0.928211 -3.131218 1.81853 -2.474874 2.474874 
C -1.81853 3.131218 -0.928211 3.5 0 3.5 
z
" style="stroke: #ffffff; stroke-width: 0.5"/>
    </defs>
    <g clip-path="url(#p48449364b5)">
     <use xlink:href="#mb00df6bc94" x="240.738347" y="128.557063" style="fill: #2f6b45; stroke: #ffffff; stroke-width: 0.5"/>
    </g>
   </g>
   <g id="text_10">
    <text style="font-size: 9px; font-family: 'TeX Gyre Heros', 'DejaVu Sans', sans-serif; text-anchor: start; fill: #1d1d1f" x="342.349899" y="131.113063" transform="rotate(-0 342.349899 131.113063)">0.562  [0.456, 0.664]</text>
   </g>
   <g id="line2d_12">
    <defs>
     <path id="mdbeda0c79a" d="M 0 3.5 
C 0.928211 3.5 1.81853 3.131218 2.474874 2.474874 
C 3.131218 1.81853 3.5 0.928211 3.5 0 
C 3.5 -0.928211 3.131218 -1.81853 2.474874 -2.474874 
C 1.81853 -3.131218 0.928211 -3.5 0 -3.5 
C -0.928211 -3.5 -1.81853 -3.131218 -2.474874 -2.474874 
C -3.131218 -1.81853 -3.5 -0.928211 -3.5 0 
C -3.5 0.928211 -3.131218 1.81853 -2.474874 2.474874 
C -1.81853 3.131218 -0.928211 3.5 0 3.5 
z
" style="stroke: #ffffff; stroke-width: 0.5"/>
    </defs>
    <g clip-path="url(#p48449364b5)">
     <use xlink:href="#mdbeda0c79a" x="228.414443" y="243.392506" style="fill: #c46a2d; stroke: #ffffff; stroke-width: 0.5"/>
    </g>
   </g>
   <g id="text_11">
    <text style="font-size: 9px; font-family: 'TeX Gyre Heros', 'DejaVu Sans', sans-serif; text-anchor: start; fill: #1d1d1f" x="342.349899" y="245.948506" transform="rotate(-0 342.349899 245.948506)">0.528  [0.464, 0.619]</text>
   </g>
   <g id="text_12">
    <text style="font-size: 10.5px; font-family: 'TeX Gyre Heros', 'DejaVu Sans', sans-serif; text-anchor: start; fill: #1d1d1f" x="144.89375" y="28.392" transform="rotate(-0 144.89375 28.392)">Temporal sampling. Identity-fixed VideoMAE.</text>
   </g>
  </g>
  <g id="text_13">
   <text style="font-size: 9px; font-family: 'TeX Gyre Heros', 'DejaVu Sans', sans-serif; fill: #5c5c63" transform="translate(144.89375 347.304562)">Points with 95% clip-level intervals. The y axis is not a bar length.</text>
   <text style="font-size: 9px; font-family: 'TeX Gyre Heros', 'DejaVu Sans', sans-serif; fill: #5c5c63" transform="translate(144.89375 358.122281)">Both intervals include 0.500. The two estimates overlap.</text>
  </g>
 </g>
 <defs>
  <clipPath id="p48449364b5">
   <rect x="144.89375" y="34.392" width="314.4672" height="272.16"/>
  </clipPath>
 </defs>
</svg>
